# xmcd
#
# Track frame offsets:
#	150
#	12882
#	20800
#	34750
#	45682
#	53637
#	69300
#	80097
#	92815
#	104885
#	115512
#	127737
#	140617
#	153350
#	168510
#	178352
#
# Disc length: 2521 seconds
#
# Revision: 2
# Processed by: cddbd v1.5.1PL0 Copyright (c) Steve Scherf et al.
# Submitted via: EasyCDDAExtractor 8.2.1.1
#
DISCID=d809d710
DTITLE=Ray Charles - You Got The Right Ray, Baby!
DYEAR=1993
DGENRE=Blues
TTITLE0=Lost Little Boy Blues
TTITLE1=Ray's Blues
TTITLE2=Will I Ever Find My Baby
TTITLE3=I'd Do Anything For You, But Work
TTITLE4=Ray's Blues Too!
TTITLE5=Oh Baby
TTITLE6=She's Sweet As Can Be
TTITLE7=I Will Not Let You Go
TTITLE8=See See Rider
TTITLE9=Hey Now
TTITLE10=Tell Me Baby
TTITLE11=Going Down Slow
TTITLE12=I'm Glad For Your Sake
TTITLE13=Baby Let Me Hold Your Hand
TTITLE14=All To Myself Alone
TTITLE15=I Wonder Who's Kissing Her Now
EXTD=
EXTT0=
EXTT1=
EXTT2=
EXTT3=
EXTT4=
EXTT5=
EXTT6=
EXTT7=
EXTT8=
EXTT9=
EXTT10=
EXTT11=
EXTT12=
EXTT13=
EXTT14=
EXTT15=
PLAYORDER=
